<mxfile host="app.diagrams.net" agent="Mozilla/5.0 (Windows NT 10.0; Win64; x64) AppleWebKit/537.36 (KHTML, like Gecko) Chrome/135.0.0.0 Safari/537.36 Edg/135.0.0.0" version="26.2.13">
  <diagram name="Page-1" id="yGtnBtRkDslpLGjMgBrs">
    <mxGraphModel dx="2330" dy="814" grid="1" gridSize="10" guides="1" tooltips="1" connect="1" arrows="1" fold="1" page="1" pageScale="1" pageWidth="850" pageHeight="1100" math="0" shadow="0">
      <root>
        <mxCell id="0" />
        <mxCell id="1" parent="0" />
        <mxCell id="Rls7XkaTP7Cld9ZL_WsU-25" style="edgeStyle=orthogonalEdgeStyle;rounded=0;orthogonalLoop=1;jettySize=auto;html=1;exitX=1;exitY=0.5;exitDx=0;exitDy=0;" edge="1" parent="1" source="Rls7XkaTP7Cld9ZL_WsU-3" target="Rls7XkaTP7Cld9ZL_WsU-23">
          <mxGeometry relative="1" as="geometry" />
        </mxCell>
        <mxCell id="Rls7XkaTP7Cld9ZL_WsU-3" value="Receieve Teacher Information" style="rounded=1;whiteSpace=wrap;html=1;" vertex="1" parent="1">
          <mxGeometry x="480" y="340" width="190" height="130" as="geometry" />
        </mxCell>
        <mxCell id="Rls7XkaTP7Cld9ZL_WsU-4" value="" style="endArrow=none;html=1;rounded=0;entryX=1;entryY=0.25;entryDx=0;entryDy=0;exitX=0;exitY=0.25;exitDx=0;exitDy=0;" edge="1" parent="1" source="Rls7XkaTP7Cld9ZL_WsU-3" target="Rls7XkaTP7Cld9ZL_WsU-3">
          <mxGeometry width="50" height="50" relative="1" as="geometry">
            <mxPoint x="450" y="410" as="sourcePoint" />
            <mxPoint x="500" y="360" as="targetPoint" />
          </mxGeometry>
        </mxCell>
        <mxCell id="Rls7XkaTP7Cld9ZL_WsU-6" style="edgeStyle=orthogonalEdgeStyle;rounded=0;orthogonalLoop=1;jettySize=auto;html=1;exitX=1;exitY=0.5;exitDx=0;exitDy=0;entryX=0;entryY=0.5;entryDx=0;entryDy=0;" edge="1" parent="1" source="Rls7XkaTP7Cld9ZL_WsU-5" target="Rls7XkaTP7Cld9ZL_WsU-3">
          <mxGeometry relative="1" as="geometry" />
        </mxCell>
        <mxCell id="Rls7XkaTP7Cld9ZL_WsU-5" value="Teacher" style="rounded=0;whiteSpace=wrap;html=1;" vertex="1" parent="1">
          <mxGeometry x="200" y="375" width="120" height="60" as="geometry" />
        </mxCell>
        <mxCell id="Rls7XkaTP7Cld9ZL_WsU-7" value="1.0" style="text;html=1;align=center;verticalAlign=middle;whiteSpace=wrap;rounded=0;" vertex="1" parent="1">
          <mxGeometry x="545" y="340" width="60" height="30" as="geometry" />
        </mxCell>
        <mxCell id="Rls7XkaTP7Cld9ZL_WsU-12" style="edgeStyle=orthogonalEdgeStyle;rounded=0;orthogonalLoop=1;jettySize=auto;html=1;exitX=1;exitY=0.5;exitDx=0;exitDy=0;" edge="1" parent="1" source="Rls7XkaTP7Cld9ZL_WsU-8" target="Rls7XkaTP7Cld9ZL_WsU-9">
          <mxGeometry relative="1" as="geometry" />
        </mxCell>
        <mxCell id="Rls7XkaTP7Cld9ZL_WsU-8" value="Teacher" style="rounded=0;whiteSpace=wrap;html=1;" vertex="1" parent="1">
          <mxGeometry x="-210" y="115" width="120" height="60" as="geometry" />
        </mxCell>
        <mxCell id="Rls7XkaTP7Cld9ZL_WsU-17" style="edgeStyle=orthogonalEdgeStyle;rounded=0;orthogonalLoop=1;jettySize=auto;html=1;exitX=1;exitY=0.75;exitDx=0;exitDy=0;entryX=0.25;entryY=1;entryDx=0;entryDy=0;" edge="1" parent="1" source="Rls7XkaTP7Cld9ZL_WsU-9" target="Rls7XkaTP7Cld9ZL_WsU-13">
          <mxGeometry relative="1" as="geometry" />
        </mxCell>
        <mxCell id="Rls7XkaTP7Cld9ZL_WsU-19" style="edgeStyle=orthogonalEdgeStyle;rounded=0;orthogonalLoop=1;jettySize=auto;html=1;exitX=0.25;exitY=1;exitDx=0;exitDy=0;entryX=0.5;entryY=1;entryDx=0;entryDy=0;" edge="1" parent="1" source="Rls7XkaTP7Cld9ZL_WsU-9" target="Rls7XkaTP7Cld9ZL_WsU-8">
          <mxGeometry relative="1" as="geometry" />
        </mxCell>
        <mxCell id="Rls7XkaTP7Cld9ZL_WsU-9" value="Computer Laboratory Management System" style="rounded=1;whiteSpace=wrap;html=1;" vertex="1" parent="1">
          <mxGeometry x="140" y="80" width="190" height="130" as="geometry" />
        </mxCell>
        <mxCell id="Rls7XkaTP7Cld9ZL_WsU-10" value="" style="endArrow=none;html=1;rounded=0;entryX=1;entryY=0.25;entryDx=0;entryDy=0;exitX=0;exitY=0.25;exitDx=0;exitDy=0;" edge="1" parent="1" source="Rls7XkaTP7Cld9ZL_WsU-9" target="Rls7XkaTP7Cld9ZL_WsU-9">
          <mxGeometry width="50" height="50" relative="1" as="geometry">
            <mxPoint x="110" y="125" as="sourcePoint" />
            <mxPoint x="160" y="75" as="targetPoint" />
          </mxGeometry>
        </mxCell>
        <mxCell id="Rls7XkaTP7Cld9ZL_WsU-11" value="0" style="text;html=1;align=center;verticalAlign=middle;whiteSpace=wrap;rounded=0;" vertex="1" parent="1">
          <mxGeometry x="205" y="80" width="60" height="30" as="geometry" />
        </mxCell>
        <mxCell id="Rls7XkaTP7Cld9ZL_WsU-18" style="edgeStyle=orthogonalEdgeStyle;rounded=0;orthogonalLoop=1;jettySize=auto;html=1;exitX=0;exitY=0.5;exitDx=0;exitDy=0;" edge="1" parent="1" source="Rls7XkaTP7Cld9ZL_WsU-13">
          <mxGeometry relative="1" as="geometry">
            <mxPoint x="330" y="120" as="targetPoint" />
          </mxGeometry>
        </mxCell>
        <mxCell id="Rls7XkaTP7Cld9ZL_WsU-13" value="Administrator" style="rounded=0;whiteSpace=wrap;html=1;" vertex="1" parent="1">
          <mxGeometry x="530" y="90" width="120" height="60" as="geometry" />
        </mxCell>
        <mxCell id="Rls7XkaTP7Cld9ZL_WsU-15" value="Issue Information" style="text;html=1;align=center;verticalAlign=middle;whiteSpace=wrap;rounded=0;" vertex="1" parent="1">
          <mxGeometry y="105" width="60" height="30" as="geometry" />
        </mxCell>
        <mxCell id="Rls7XkaTP7Cld9ZL_WsU-16" value="Resolved Issue" style="text;html=1;align=center;verticalAlign=middle;whiteSpace=wrap;rounded=0;" vertex="1" parent="1">
          <mxGeometry x="400" y="80" width="60" height="30" as="geometry" />
        </mxCell>
        <mxCell id="Rls7XkaTP7Cld9ZL_WsU-20" value="PC Information" style="text;html=1;align=center;verticalAlign=middle;whiteSpace=wrap;rounded=0;" vertex="1" parent="1">
          <mxGeometry x="-10" y="240" width="60" height="30" as="geometry" />
        </mxCell>
        <mxCell id="Rls7XkaTP7Cld9ZL_WsU-21" value="Received Issue" style="text;html=1;align=center;verticalAlign=middle;whiteSpace=wrap;rounded=0;" vertex="1" parent="1">
          <mxGeometry x="425" y="190" width="60" height="30" as="geometry" />
        </mxCell>
        <mxCell id="Rls7XkaTP7Cld9ZL_WsU-31" style="edgeStyle=orthogonalEdgeStyle;rounded=0;orthogonalLoop=1;jettySize=auto;html=1;exitX=0;exitY=1;exitDx=0;exitDy=0;entryX=0.25;entryY=0;entryDx=0;entryDy=0;" edge="1" parent="1" source="Rls7XkaTP7Cld9ZL_WsU-23" target="Rls7XkaTP7Cld9ZL_WsU-26">
          <mxGeometry relative="1" as="geometry" />
        </mxCell>
        <mxCell id="Rls7XkaTP7Cld9ZL_WsU-23" value="D1" style="html=1;dashed=0;whiteSpace=wrap;shape=mxgraph.dfd.dataStoreID;align=left;spacingLeft=3;points=[[0,0],[0.5,0],[1,0],[0,0.5],[1,0.5],[0,1],[0.5,1],[1,1]];" vertex="1" parent="1">
          <mxGeometry x="760" y="390" width="100" height="30" as="geometry" />
        </mxCell>
        <mxCell id="Rls7XkaTP7Cld9ZL_WsU-24" value="Teacher Data" style="text;html=1;align=center;verticalAlign=middle;whiteSpace=wrap;rounded=0;fontSize=9;" vertex="1" parent="1">
          <mxGeometry x="790" y="390" width="60" height="30" as="geometry" />
        </mxCell>
        <mxCell id="Rls7XkaTP7Cld9ZL_WsU-34" style="edgeStyle=orthogonalEdgeStyle;rounded=0;orthogonalLoop=1;jettySize=auto;html=1;exitX=0.5;exitY=1;exitDx=0;exitDy=0;entryX=0;entryY=0.5;entryDx=0;entryDy=0;" edge="1" parent="1" source="Rls7XkaTP7Cld9ZL_WsU-26" target="Rls7XkaTP7Cld9ZL_WsU-32">
          <mxGeometry relative="1" as="geometry" />
        </mxCell>
        <mxCell id="Rls7XkaTP7Cld9ZL_WsU-26" value="Add Issue" style="rounded=1;whiteSpace=wrap;html=1;" vertex="1" parent="1">
          <mxGeometry x="715" y="580" width="190" height="130" as="geometry" />
        </mxCell>
        <mxCell id="Rls7XkaTP7Cld9ZL_WsU-27" value="" style="endArrow=none;html=1;rounded=0;entryX=1;entryY=0.25;entryDx=0;entryDy=0;exitX=0;exitY=0.25;exitDx=0;exitDy=0;" edge="1" parent="1" source="Rls7XkaTP7Cld9ZL_WsU-26" target="Rls7XkaTP7Cld9ZL_WsU-26">
          <mxGeometry width="50" height="50" relative="1" as="geometry">
            <mxPoint x="685" y="650" as="sourcePoint" />
            <mxPoint x="735" y="600" as="targetPoint" />
          </mxGeometry>
        </mxCell>
        <mxCell id="Rls7XkaTP7Cld9ZL_WsU-28" value="2.0" style="text;html=1;align=center;verticalAlign=middle;whiteSpace=wrap;rounded=0;" vertex="1" parent="1">
          <mxGeometry x="780" y="580" width="60" height="30" as="geometry" />
        </mxCell>
        <mxCell id="Rls7XkaTP7Cld9ZL_WsU-32" value="D2" style="html=1;dashed=0;whiteSpace=wrap;shape=mxgraph.dfd.dataStoreID;align=left;spacingLeft=3;points=[[0,0],[0.5,0],[1,0],[0,0.5],[1,0.5],[0,1],[0.5,1],[1,1]];" vertex="1" parent="1">
          <mxGeometry x="830" y="800" width="100" height="30" as="geometry" />
        </mxCell>
        <mxCell id="Rls7XkaTP7Cld9ZL_WsU-33" value="Issue Data" style="text;html=1;align=center;verticalAlign=middle;whiteSpace=wrap;rounded=0;fontSize=9;" vertex="1" parent="1">
          <mxGeometry x="860" y="800" width="60" height="30" as="geometry" />
        </mxCell>
        <mxCell id="Rls7XkaTP7Cld9ZL_WsU-35" value="Administrator" style="rounded=0;whiteSpace=wrap;html=1;" vertex="1" parent="1">
          <mxGeometry x="1350" y="370" width="120" height="60" as="geometry" />
        </mxCell>
      </root>
    </mxGraphModel>
  </diagram>
</mxfile>
